<svg xmlns="http://www.w3.org/2000/svg" viewBox="0 0 1440 320">
    <defs>
        <linearGradient id="light-right" x1="1" y1="0.5" x2="0" y2="0.5">
            <stop offset="0%" stop-color="white"/>
            <stop offset="100%" stop-color="#050a14"/>
        </linearGradient>
    </defs>
    <path fill="#050a14" d="M0,160L24,160C48,160,96,160,144,138.7C192,117,240,75,288,64C336,53,384,75,432,106.7C480,139,528,181,576,208C624,235,672,245,720,240C768,235,816,213,864,186.7C912,160,960,128,1008,133.3C1056,139,1104,181,1152,202.7C1200,224,1248,224,1296,197.3C1344,171,1392,117,1416,90.7L1440,64L1440,0L0,0Z"></path>
    <circle cx="32" cy="90" r="2" fill="url(#light-right)"/>
    <circle cx="26" cy="84" r="3" fill="url(#light-right)"/>
    <circle cx="33" cy="106" r="4" fill="url(#light-right)"/>
    <circle cx="55" cy="111" r="1" fill="url(#light-right)"/>
    <!-- Planets -->
    <circle cx="190" cy="90" r="12" fill="url(#light-right)"/>
    <circle cx="450" cy="190" r="8" fill="url(#light-right)"/>
    <circle cx="290" cy="130" r="10" fill="url(#light-right)"/>
    <!-- The Stars  -->
    <circle cx="400" cy="220" r="1.5" fill="white"/>
    <circle cx="410" cy="230" r="1.2" fill="white"/>
    <circle cx="370" cy="190" r="1" fill="white"/>
    <circle cx="700" cy="100" r="0.5" fill="white"/>
    <circle cx="900" cy="80" r="0.8" fill="white"/>
    <circle cx="1250" cy="180" r="0.5" fill="white"/>
    <!-- Planet's rings-->
    <ellipse cx="450" cy="190" rx="28" ry="10" fill="none" stroke="white" stroke-width="0.6"/>
    <ellipse cx="450" cy="190" rx="35" ry="12" fill="none" stroke="white" stroke-width="0.8"/>
    <ellipse cx="450" cy="190" rx="40" ry="14" fill="none" stroke="white" stroke-width="1"/>
    <!--Stars  -->
    <circle cx="302" cy="310" r="1.5" fill="white"/>
    <circle cx="521" cy="313" r="0.5" fill="white"/>
    <circle cx="218" cy="272" r="0.5" fill="white"/>
    <circle cx="1061" cy="309" r="0.5" fill="white"/>
    <circle cx="610" cy="284" r="0.5" fill="white"/>
    <circle cx="427" cy="299" r="0.5" fill="white"/>
    <circle cx="629" cy="315" r="0.5" fill="white"/>
    <circle cx="189" cy="284" r="0.5" fill="white"/>
    <circle cx="576" cy="274" r="0.5" fill="white"/>
    <circle cx="34" cy="310" r="1" fill="white"/>
    <circle cx="936" cy="278" r="0.5" fill="white"/>
    <circle cx="842" cy="308" r="0.5" fill="white"/>
    <circle cx="284" cy="275" r="0.5" fill="white"/>
    <circle cx="1438" cy="274" r="0.5" fill="white"/>
    <circle cx="1126" cy="275" r="0.5" fill="white"/>
    <circle cx="1176" cy="274" r="0.5" fill="white"/>
    <circle cx="649" cy="252" r="0.5" fill="white"/>
    <circle cx="1371" cy="309" r="0.5" fill="white"/>
    <circle cx="1121" cy="278" r="0.5" fill="white"/>
    <circle cx="96" cy="307" r="1" fill="white"/>
    <circle cx="564" cy="258" r="0.5" fill="white"/>
    <circle cx="41" cy="314" r="0.5" fill="white"/>
    <circle cx="29" cy="293" r="0.5" fill="white"/>
    <circle cx="1059" cy="319" r="0.5" fill="white"/>
    <circle cx="669" cy="306" r="0.5" fill="white"/>
    <circle cx="838" cy="276" r="0.5" fill="white"/>
    <circle cx="874" cy="287" r="0.5" fill="white"/>
    <circle cx="360" cy="272" r="0.5" fill="white"/>
    <circle cx="549" cy="286" r="0.5" fill="white"/>
    <circle cx="163" cy="289" r="1" fill="white"/>
    <circle cx="359" cy="274" r="0.5" fill="white"/>
    <circle cx="269" cy="277" r="0.5" fill="white"/>
    <circle cx="934" cy="287" r="1.5" fill="white"/>
    <circle cx="1052" cy="256" r="0.5" fill="white"/>
    <circle cx="1001" cy="262" r="0.5" fill="white"/>
    <circle cx="589" cy="273" r="0.5" fill="white"/>
    <circle cx="764" cy="309" r="0.5" fill="white"/>
    <circle cx="837" cy="289" r="0.5" fill="white"/>
    <circle cx="749" cy="270" r="0.5" fill="white"/>
    <circle cx="1065" cy="318" r="1" fill="white"/>
    <circle cx="594" cy="262" r="0.5" fill="white"/>
    <circle cx="782" cy="300" r="1" fill="white"/>
    <circle cx="237" cy="308" r="0.5" fill="white"/>
    <circle cx="1190" cy="298" r="0.5" fill="white"/>
    <circle cx="784" cy="257" r="0.5" fill="white"/>
    <circle cx="647" cy="292" r="0.5" fill="white"/>
    <circle cx="1186" cy="287" r="0.5" fill="white"/>
    <circle cx="771" cy="265" r="0.5" fill="white"/>
    <circle cx="284" cy="283" r="0.5" fill="white"/>
    <circle cx="404" cy="271" r="0.5" fill="white"/>
    <circle cx="514" cy="252" r="1.5" fill="white"/>
    <circle cx="234" cy="314" r="1" fill="white"/>
    <circle cx="1021" cy="274" r="0.5" fill="white"/>
    <circle cx="1319" cy="271" r="0.5" fill="white"/>
    <circle cx="543" cy="276" r="0.5" fill="white"/>
    <circle cx="435" cy="294" r="0.5" fill="white"/>
    <circle cx="369" cy="292" r="0.5" fill="white"/>
    <circle cx="234" cy="275" r="0.5" fill="white"/>
    <circle cx="40" cy="304" r="0.5" fill="white"/>
    <circle cx="206" cy="266" r="0.5" fill="white"/>
    <circle cx="103" cy="310" r="0.5" fill="white"/>
    <circle cx="75" cy="276" r="1" fill="white"/>
    <circle cx="1397" cy="264" r="0.5" fill="white"/>
    <circle cx="1027" cy="275" r="0.5" fill="white"/>
    <circle cx="273" cy="283" r="0.5" fill="white"/>
    <circle cx="1053" cy="302" r="0.5" fill="white"/>
    <circle cx="1165" cy="302" r="0.5" fill="white"/>
    <circle cx="432" cy="314" r="0.5" fill="white"/>
    <circle cx="591" cy="311" r="0.5" fill="white"/>
    <circle cx="160" cy="319" r="0.5" fill="white"/>
    <circle cx="268" cy="306" r="0.5" fill="white"/>
    <circle cx="338" cy="288" r="1.5" fill="white"/>
    <circle cx="347" cy="298" r="0.5" fill="white"/>
    <circle cx="198" cy="303" r="0.5" fill="white"/>
    <circle cx="421" cy="262" r="0.5" fill="white"/>
    <circle cx="1090" cy="268" r="0.5" fill="white"/>
    <circle cx="606" cy="309" r="0.5" fill="white"/>
    <circle cx="943" cy="263" r="0.5" fill="white"/>
    <circle cx="1149" cy="264" r="0.5" fill="white"/>
    <circle cx="233" cy="302" r="0.5" fill="white"/>
    <circle cx="743" cy="282" r="0.5" fill="white"/>
    <circle cx="137" cy="265" r="0.5" fill="white"/>
    <circle cx="991" cy="304" r="0.5" fill="white"/>
    <circle cx="123" cy="271" r="0.5" fill="white"/>
    <circle cx="1107" cy="293" r="1" fill="white"/>
    <circle cx="575" cy="251" r="0.5" fill="white"/>
    <circle cx="89" cy="313" r="0.5" fill="white"/>
    <circle cx="1429" cy="299" r="0.5" fill="white"/>
    <circle cx="132" cy="268" r="0.5" fill="white"/>
    <circle cx="1290" cy="277" r="1" fill="white"/>
    <circle cx="651" cy="292" r="0.5" fill="white"/>
    <circle cx="79" cy="257" r="0.5" fill="white"/>
    <circle cx="1304" cy="312" r="1.5" fill="white"/>
    <circle cx="203" cy="315" r="0.5" fill="white"/>
    <circle cx="554" cy="277" r="0.5" fill="white"/>
    <circle cx="1152" cy="253" r="1" fill="white"/>
    <circle cx="922" cy="258" r="0.5" fill="white"/>
    <circle cx="729" cy="298" r="0.5" fill="white"/>
    <circle cx="453" cy="284" r="0.5" fill="white"/>
    <circle cx="144" cy="306" r="0.5" fill="white"/>
    <circle cx="1068" cy="286" r="1" fill="white"/>
    <circle cx="1314" cy="278" r="0.5" fill="white"/>
    <circle cx="256" cy="310" r="1.5" fill="white"/>
    <circle cx="827" cy="291" r="0.5" fill="white"/>
    <circle cx="307" cy="313" r="0.5" fill="white"/>
    <circle cx="1117" cy="265" r="1" fill="white"/>
    <circle cx="1240" cy="273" r="0.5" fill="white"/>
    <circle cx="384" cy="264" r="0.5" fill="white"/>
    <circle cx="1021" cy="305" r="0.5" fill="white"/>
    <circle cx="745" cy="287" r="0.5" fill="white"/>
    <circle cx="90" cy="277" r="1" fill="white"/>
    <circle cx="486" cy="259" r="0.5" fill="white"/>
    <circle cx="1004" cy="307" r="0.5" fill="white"/>
    <circle cx="598" cy="299" r="1.5" fill="white"/>
    <circle cx="413" cy="256" r="0.5" fill="white"/>
    <circle cx="1228" cy="315" r="0.5" fill="white"/>
    <circle cx="1321" cy="272" r="1" fill="white"/>
    <circle cx="230" cy="314" r="0.5" fill="white"/>
    <circle cx="817" cy="269" r="0.5" fill="white"/>
    <circle cx="642" cy="318" r="0.5" fill="white"/>
    <circle cx="111" cy="293" r="1" fill="white"/>
    <circle cx="403" cy="312" r="0.5" fill="white"/>
    <circle cx="1222" cy="284" r="0.5" fill="white"/>
    <circle cx="57" cy="269" r="0.5" fill="white"/>
    <circle cx="130" cy="297" r="1.5" fill="white"/>
    <circle cx="535" cy="275" r="0.5" fill="white"/>
    <circle cx="308" cy="254" r="1" fill="white"/>
    <circle cx="1382" cy="290" r="0.5" fill="white"/>
    <circle cx="263" cy="252" r="0.5" fill="white"/>
    <circle cx="1439" cy="274" r="0.5" fill="white"/>
    <circle cx="778" cy="285" r="1.5" fill="white"/>
    <circle cx="534" cy="268" r="0.5" fill="white"/>
    <circle cx="611" cy="259" r="1" fill="white"/>
    <circle cx="946" cy="264" r="0.5" fill="white"/>
    <circle cx="1238" cy="319" r="0.5" fill="white"/>
    <circle cx="1034" cy="294" r="0.5" fill="white"/>
    <circle cx="38" cy="283" r="0.5" fill="white"/>
    <circle cx="670" cy="317" r="1" fill="white"/> 
    <circle cx="383" cy="278" r="0.5" fill="white"/>
    <circle cx="5" cy="260" r="0.5" fill="white"/>
    <circle cx="10" cy="280" r="0.5" fill="white"/>
    <circle cx="15" cy="300" r="0.5" fill="white"/>
    <circle cx="20" cy="270" r="0.5" fill="white"/>
    <circle cx="25" cy="310" r="0.5" fill="white"/>
    <circle cx="30" cy="290" r="0.5" fill="white"/>
    <circle cx="35" cy="265" r="0.5" fill="white"/>
    <circle cx="8" cy="275" r="0.5" fill="white"/>
    <circle cx="9" cy="312" r="0.5" fill="white"/>
    <circle cx="6" cy="301" r="0.5" fill="white"/>
    <circle cx="2" cy="314" r="0.5" fill="white"/>
</svg>